<svg width="64" height="64" viewBox="0 0 64 64" fill="none" xmlns="http://www.w3.org/2000/svg">
<path d="M46.5858 25.4142C45.8047 24.6332 37.7417 15.3038 38.5228 14.5228C39.3038 13.7417 48.6332 21.8047 49.4142 22.5858L57.4087 30.5803C57.4267 30.5981 57.4443 30.6163 57.4616 30.6349C57.7956 30.9923 58 31.4723 58 32C58 32.2683 57.9472 32.5242 57.8514 32.758C57.7538 32.9967 57.608 33.2204 57.4142 33.4142L49.4142 41.4142C48.6332 42.1953 39.3038 50.2583 38.5228 49.4772C37.7417 48.6962 45.8047 39.3669 46.5858 38.5858L51.1716 34H8C6.89543 34 6 33.1046 6 32C6 30.8954 6.89543 30 8 30H51.1716L46.5858 25.4142Z" fill="white"/>
</svg>
