<svg width="64" height="64" viewBox="0 0 64 64" fill="none" xmlns="http://www.w3.org/2000/svg">
<path fill-rule="evenodd" clip-rule="evenodd" d="M19.3333 21.3333V16C19.3333 9.0044 25.0044 3.33334 32 3.33334C38.9956 3.33334 44.6667 9.0044 44.6667 16V21.3333H45.3333C51.2244 21.3333 56 26.109 56 32V48C56 53.891 51.2244 58.6667 45.3333 58.6667H18.6667C12.7756 58.6667 8 53.891 8 48V32C8 26.109 12.7756 21.3333 18.6667 21.3333H19.3333ZM23.3333 16C23.3333 11.2135 27.2135 7.33334 32 7.33334C36.7865 7.33334 40.6667 11.2135 40.6667 16V21.3333H23.3333V16Z" fill="white"/>
</svg>
