<svg width="453" height="106" viewBox="0 0 453 106" fill="none" xmlns="http://www.w3.org/2000/svg">
<circle cx="50" cy="53" r="50" fill="white"/>
<path d="M100 103C113.261 103 125.979 97.7322 135.355 88.3553C144.732 78.9785 150 66.2608 150 53C150 39.7392 144.732 27.0215 135.355 17.6447C125.979 8.26785 113.261 3 100 3L100 53L100 103Z" fill="white"/>
<path d="M208.392 88.008C204.416 88.008 200.72 87.28 197.304 85.824C193.944 84.368 191.032 82.352 188.568 79.776C186.16 77.144 184.396 74.092 183.276 70.62L192.768 66.504C194.28 70.088 196.464 72.916 199.32 74.988C202.176 77.004 205.396 78.012 208.98 78.012C210.996 78.012 212.732 77.704 214.188 77.088C215.7 76.416 216.848 75.52 217.632 74.4C218.472 73.28 218.892 71.936 218.892 70.368C218.892 68.52 218.332 67.008 217.212 65.832C216.148 64.6 214.524 63.648 212.34 62.976L200.328 59.112C195.456 57.6 191.788 55.332 189.324 52.308C186.86 49.284 185.628 45.728 185.628 41.64C185.628 38.056 186.496 34.892 188.232 32.148C190.024 29.404 192.488 27.276 195.624 25.764C198.816 24.196 202.456 23.412 206.544 23.412C210.296 23.412 213.74 24.084 216.876 25.428C220.012 26.716 222.7 28.536 224.94 30.888C227.236 33.184 228.944 35.9 230.064 39.036L220.656 43.236C219.424 40.1 217.576 37.692 215.112 36.012C212.648 34.276 209.792 33.408 206.544 33.408C204.64 33.408 202.96 33.744 201.504 34.416C200.048 35.032 198.9 35.928 198.06 37.104C197.276 38.224 196.884 39.568 196.884 41.136C196.884 42.872 197.444 44.412 198.564 45.756C199.684 47.044 201.392 48.052 203.688 48.78L215.196 52.392C220.18 54.016 223.904 56.256 226.368 59.112C228.888 61.968 230.148 65.496 230.148 69.696C230.148 73.28 229.224 76.444 227.376 79.188C225.528 81.932 222.98 84.088 219.732 85.656C216.484 87.224 212.704 88.008 208.392 88.008ZM252.961 88.008C249.769 88.008 246.997 87.476 244.645 86.412C242.293 85.348 240.473 83.836 239.185 81.876C237.897 79.86 237.253 77.536 237.253 74.904C237.253 72.384 237.813 70.144 238.933 68.184C240.053 66.168 241.789 64.488 244.141 63.144C246.493 61.8 249.461 60.848 253.045 60.288L267.997 57.852V66.252L255.145 68.436C252.961 68.828 251.337 69.528 250.273 70.536C249.209 71.544 248.677 72.86 248.677 74.484C248.677 76.052 249.265 77.312 250.441 78.264C251.673 79.16 253.185 79.608 254.977 79.608C257.273 79.608 259.289 79.132 261.025 78.18C262.817 77.172 264.189 75.8 265.141 74.064C266.149 72.328 266.653 70.424 266.653 68.352V56.592C266.653 54.632 265.869 53.008 264.301 51.72C262.789 50.376 260.773 49.704 258.253 49.704C255.901 49.704 253.801 50.348 251.953 51.636C250.161 52.868 248.845 54.52 248.005 56.592L239.017 52.224C239.913 49.816 241.313 47.744 243.217 46.008C245.177 44.216 247.473 42.816 250.105 41.808C252.737 40.8 255.593 40.296 258.673 40.296C262.425 40.296 265.729 40.996 268.585 42.396C271.441 43.74 273.653 45.644 275.221 48.108C276.845 50.516 277.657 53.344 277.657 56.592V87H267.241V79.188L269.593 79.02C268.417 80.98 267.017 82.632 265.393 83.976C263.769 85.264 261.921 86.272 259.849 87C257.777 87.672 255.481 88.008 252.961 88.008ZM305.215 88.008C300.343 88.008 296.087 86.86 292.447 84.564C288.863 82.212 286.399 79.048 285.055 75.072L293.287 71.124C294.463 73.7 296.087 75.716 298.159 77.172C300.287 78.628 302.639 79.356 305.215 79.356C307.231 79.356 308.827 78.908 310.003 78.012C311.179 77.116 311.767 75.94 311.767 74.484C311.767 73.588 311.515 72.86 311.011 72.3C310.563 71.684 309.919 71.18 309.079 70.788C308.295 70.34 307.427 69.976 306.475 69.696L298.999 67.596C295.135 66.476 292.195 64.768 290.179 62.472C288.219 60.176 287.239 57.46 287.239 54.324C287.239 51.524 287.939 49.088 289.339 47.016C290.795 44.888 292.783 43.236 295.303 42.06C297.879 40.884 300.819 40.296 304.123 40.296C308.435 40.296 312.243 41.332 315.547 43.404C318.851 45.476 321.203 48.388 322.603 52.14L314.203 56.088C313.419 54.016 312.103 52.364 310.255 51.132C308.407 49.9 306.335 49.284 304.039 49.284C302.191 49.284 300.735 49.704 299.671 50.544C298.607 51.384 298.075 52.476 298.075 53.82C298.075 54.66 298.299 55.388 298.747 56.004C299.195 56.62 299.811 57.124 300.595 57.516C301.435 57.908 302.387 58.272 303.451 58.608L310.759 60.792C314.511 61.912 317.395 63.592 319.411 65.832C321.483 68.072 322.519 70.816 322.519 74.064C322.519 76.808 321.791 79.244 320.335 81.372C318.879 83.444 316.863 85.068 314.287 86.244C311.711 87.42 308.687 88.008 305.215 88.008ZM330.976 87V41.304H341.98V87H330.976ZM330.976 36.18V24.42H341.98V36.18H330.976ZM374.148 88.008C369.612 88.008 365.524 86.972 361.884 84.9C358.3 82.772 355.472 79.916 353.4 76.332C351.328 72.692 350.292 68.604 350.292 64.068C350.292 59.532 351.328 55.472 353.4 51.888C355.472 48.304 358.3 45.476 361.884 43.404C365.524 41.332 369.612 40.296 374.148 40.296C377.396 40.296 380.42 40.884 383.22 42.06C386.02 43.18 388.428 44.748 390.444 46.764C392.516 48.724 394 51.076 394.896 53.82L385.236 58.02C384.396 55.724 382.968 53.876 380.952 52.476C378.992 51.076 376.724 50.376 374.148 50.376C371.74 50.376 369.584 50.964 367.68 52.14C365.832 53.316 364.376 54.94 363.312 57.012C362.248 59.084 361.716 61.464 361.716 64.152C361.716 66.84 362.248 69.22 363.312 71.292C364.376 73.364 365.832 74.988 367.68 76.164C369.584 77.34 371.74 77.928 374.148 77.928C376.78 77.928 379.076 77.228 381.036 75.828C382.996 74.428 384.396 72.552 385.236 70.2L394.896 74.568C394 77.144 392.544 79.468 390.528 81.54C388.512 83.556 386.104 85.152 383.304 86.328C380.504 87.448 377.452 88.008 374.148 88.008ZM425.589 88.008C421.109 88.008 417.021 86.972 413.325 84.9C409.685 82.828 406.773 80 404.589 76.416C402.461 72.832 401.397 68.744 401.397 64.152C401.397 59.56 402.461 55.472 404.589 51.888C406.773 48.304 409.685 45.476 413.325 43.404C416.965 41.332 421.053 40.296 425.589 40.296C430.069 40.296 434.129 41.332 437.769 43.404C441.409 45.476 444.293 48.304 446.421 51.888C448.605 55.416 449.697 59.504 449.697 64.152C449.697 68.744 448.605 72.832 446.421 76.416C444.237 80 441.325 82.828 437.685 84.9C434.045 86.972 430.013 88.008 425.589 88.008ZM425.589 77.928C428.053 77.928 430.209 77.34 432.057 76.164C433.961 74.988 435.445 73.364 436.509 71.292C437.629 69.164 438.189 66.784 438.189 64.152C438.189 61.464 437.629 59.112 436.509 57.096C435.445 55.024 433.961 53.4 432.057 52.224C430.209 50.992 428.053 50.376 425.589 50.376C423.069 50.376 420.857 50.992 418.953 52.224C417.049 53.4 415.537 55.024 414.417 57.096C413.353 59.112 412.821 61.464 412.821 64.152C412.821 66.784 413.353 69.164 414.417 71.292C415.537 73.364 417.049 74.988 418.953 76.164C420.857 77.34 423.069 77.928 425.589 77.928Z" fill="white"/>
</svg>
