<svg width="64" height="64" viewBox="0 0 64 64" fill="none" xmlns="http://www.w3.org/2000/svg">
<path d="M29.4112 10.7283C30.6222 8.86835 33.3778 8.86835 34.5888 10.7283L40.7924 20.2569C41.2091 20.8968 41.8541 21.3592 42.5998 21.5523L53.7026 24.4285C55.8699 24.99 56.7214 27.5755 55.3025 29.2864L48.0338 38.0516C47.5456 38.6403 47.2993 39.3883 47.3435 40.1477L48.0017 51.4538C48.1302 53.6608 45.9008 55.2587 43.813 54.4562L33.117 50.3448C32.3986 50.0687 31.6014 50.0687 30.883 50.3448L20.187 54.4562C18.0992 55.2587 15.8698 53.6608 15.9983 51.4538L16.6565 40.1477C16.7007 39.3883 16.4544 38.6403 15.9662 38.0516L8.69747 29.2864C7.27861 27.5755 8.13015 24.99 10.2974 24.4285L21.4002 21.5523C22.1459 21.3592 22.7909 20.8968 23.2076 20.2569L29.4112 10.7283Z" fill="white"/>
</svg>
